<?xml version="1.0" encoding="utf-8"?>
<!-- Generator: Adobe Illustrator 24.0.3, SVG Export Plug-In . SVG Version: 6.00 Build 0)  -->
<svg version="1.1" id="Capa_1" xmlns="http://www.w3.org/2000/svg" xmlns:xlink="http://www.w3.org/1999/xlink" x="0px" y="0px"
	 width="100px" height="70px" viewBox="0 0 100 70" style="enable-background:new 0 0 100 70;" xml:space="preserve">
<style type="text/css">
	.st0{fill-rule:evenodd;clip-rule:evenodd;fill:#004177;}
	.st1{fill:#FFFFFF;}
	.st2{fill:#004177;}
	.st3{clip-path:url(#SVGID_2_);fill-rule:evenodd;clip-rule:evenodd;fill:#DD2818;}
	.st4{fill-rule:evenodd;clip-rule:evenodd;fill:#003B75;}
	.st5{filter:url(#Adobe_OpacityMaskFilter);}
	.st6{fill-rule:evenodd;clip-rule:evenodd;fill:#FFFFFF;}
	.st7{mask:url(#b_2_);fill-rule:evenodd;clip-rule:evenodd;fill:#DF050B;}
	.st8{fill-rule:evenodd;clip-rule:evenodd;fill:#FEFEFE;}
	.st9{fill-rule:evenodd;clip-rule:evenodd;fill:#004D97;}
	.st10{fill:#E30613;}
	.st11{fill:#C10000;}
	.st12{fill-rule:evenodd;clip-rule:evenodd;fill:#001F82;}
	.st13{fill:#001F82;}
	.st14{fill:#009A49;}
	.st15{fill:#352B6B;}
	.st16{fill:#D50C1F;}
	.st17{clip-path:url(#SVGID_4_);fill:none;stroke:#D50C1F;stroke-width:0.21;stroke-miterlimit:10;}
	.st18{fill:#0A1119;}
	.st19{fill:#E61E0A;}
	.st20{fill:#FAB500;}
	.st21{fill-rule:evenodd;clip-rule:evenodd;fill:#FABA01;}
	.st22{fill:#FABA01;}
	.st23{fill:#003772;}
	.st24{clip-path:url(#SVGID_6_);fill-rule:evenodd;clip-rule:evenodd;fill:#090908;}
	.st25{clip-path:url(#SVGID_6_);fill:#FCEE30;}
	.st26{fill-rule:evenodd;clip-rule:evenodd;fill:#FCEE30;}
	.st27{fill:#090908;}
</style>
<image style="overflow:visible;" width="409" height="290" xlink:href="../../../../../../Downloads/file.png"  transform="matrix(0.5665 0.4965 -0.4965 0.5665 23.8113 -590.0746)">
</image>
<image style="overflow:visible;" width="409" height="290" xlink:href="../../../../../../Downloads/file.png"  transform="matrix(0.7401 0.1401 -0.1401 0.7401 -57.0691 -425.6778)">
</image>
<g>
	<path class="st0" d="M-27.575-47.353l0.248-0.001c0.163,0.001,0.276-0.029,0.345-0.081c0.064-0.048,0.099-0.127,0.098-0.209
		c0.001-0.08-0.034-0.155-0.096-0.204c-0.066-0.052-0.18-0.082-0.332-0.082l-0.266,0.002L-27.575-47.353z M-28.147-48.321
		l1.022-0.005c0.295-0.002,0.501,0.057,0.634,0.171c0.128,0.119,0.192,0.276,0.193,0.469c0.002,0.156-0.043,0.286-0.145,0.401
		c-0.104,0.11-0.256,0.194-0.473,0.244c0.091,0.035,0.155,0.075,0.197,0.11c0.052,0.053,0.117,0.128,0.185,0.228l0.368,0.666
		l-0.672,0.003c-0.223-0.436-0.367-0.697-0.444-0.784c-0.074-0.082-0.147-0.122-0.226-0.122c-0.016,0-0.037,0-0.067,0.01
		l0.004,0.899l-0.567,0.003L-28.147-48.321z M-25.445-47.189c-0.003-0.476-0.17-0.879-0.511-1.213
		c-0.336-0.34-0.745-0.504-1.223-0.503c-0.476,0.002-0.888,0.172-1.223,0.515c-0.339,0.334-0.499,0.737-0.497,1.216
		c0.002,0.479,0.164,0.885,0.509,1.221c0.337,0.335,0.75,0.501,1.227,0.498c0.475-0.003,0.885-0.168,1.218-0.507
		C-25.607-46.302-25.443-46.71-25.445-47.189 M-25.03-47.189c0.003,0.385-0.097,0.745-0.284,1.075
		c-0.19,0.329-0.446,0.595-0.781,0.786c-0.332,0.19-0.688,0.287-1.073,0.289c-0.379,0.002-0.736-0.096-1.066-0.281
		c-0.333-0.187-0.598-0.451-0.792-0.781c-0.195-0.328-0.288-0.686-0.289-1.073c-0.002-0.376,0.089-0.732,0.279-1.067
		c0.193-0.331,0.454-0.593,0.786-0.787c0.327-0.191,0.684-0.29,1.064-0.293c0.386,0,0.74,0.097,1.076,0.284
		c0.336,0.19,0.594,0.452,0.788,0.78C-25.132-47.924-25.031-47.568-25.03-47.189"/>
	<path class="st1" d="M-60.226-80.282l40.578,19.845c1.766,0.79,2.32,3.716,0.252,4.986l-40.646,20.246
		c-1.611,0.803-4.002,0.812-5.619,0.022l-40.682-19.857c-2.016-1.34-1.955-3.952,0.035-5.042l40.464-20.176
		C-64.233-81.062-61.842-81.071-60.226-80.282"/>
	<path class="st1" d="M-62.88-34.028c-1.105,0-2.18-0.23-3.031-0.644l-40.715-19.873l-0.031-0.022
		c-1.14-0.76-1.791-1.954-1.737-3.199c0.051-1.17,0.728-2.223,1.813-2.815l0.02-0.011l40.463-20.177
		c0.866-0.431,1.963-0.669,3.093-0.669c1.104,0,2.179,0.23,3.031,0.645l40.568,19.84c1.071,0.483,1.816,1.622,1.899,2.903
		c0.082,1.268-0.514,2.42-1.593,3.081l-0.042,0.024l-40.646,20.246C-60.652-34.265-61.75-34.028-62.88-34.028 M-106.058-55.536
		l40.646,19.841c0.698,0.34,1.598,0.529,2.533,0.529c0.957,0,1.874-0.195,2.585-0.549l40.62-20.235
		c0.71-0.444,1.087-1.182,1.032-2.026c-0.056-0.856-0.553-1.635-1.237-1.942l-0.019-0.008l-40.577-19.846
		c-0.698-0.338-1.596-0.528-2.53-0.528c-0.957,0-1.875,0.196-2.586,0.548l-40.452,20.171c-0.737,0.408-1.18,1.086-1.214,1.863
		C-107.292-56.883-106.845-56.071-106.058-55.536"/>
	<path class="st2" d="M-60.231-80.155l40.411,19.753c1.972,0.954,2.258,3.922,0.193,4.951l-40.421,20.154
		c-1.611,0.797-3.989,0.805-5.592,0.021l-40.075-19.567c-2.531-1.232-2.577-4.121-0.245-5.285l40.137-20.003
		C-64.224-80.931-61.848-80.939-60.231-80.155"/>
	<path class="st1" d="M-60.324-79.417l39.674,19.375c2.141,1.053,2.151,3.208,0.015,4.272l-39.513,19.7
		c-1.548,0.769-3.851,0.779-5.406,0.021l-39.674-19.383c-2.147-1.045-2.155-3.2-0.017-4.264l39.516-19.697
		C-64.183-80.164-61.879-80.173-60.324-79.417"/>
	<g>
		<defs>
			<path id="SVGID_1_" d="M-62.999-79.978c-0.973,0-1.948,0.195-2.731,0.585l-39.516,19.697c-2.138,1.064-2.129,3.219,0.017,4.265
				l39.673,19.382c1.555,0.758,3.859,0.749,5.407-0.021l39.513-19.7c2.136-1.064,2.125-3.219-0.016-4.272l-39.673-19.375
				c-0.769-0.374-1.72-0.561-2.673-0.561H-62.999z"/>
		</defs>
		<clipPath id="SVGID_2_">
			<use xlink:href="#SVGID_1_"  style="overflow:visible;"/>
		</clipPath>
		<polygon class="st3" points="-90.875,-86.793 -33.437,-87.027 -33.313,-69.511 -90.806,-69.505 		"/>
		<polygon class="st3" points="-91.397,-45.62 -33.935,-45.623 -33.864,-28.529 -91.297,-28.295 		"/>
	</g>
	<polygon class="st4" points="-74.435,-64.62 -68.085,-64.645 -63.59,-56.492 -59.027,-64.683 -52.803,-64.707 -60.708,-50.384 
		-66.443,-50.361 	"/>
	<path class="st4" d="M-46.999-60.509l6.754-0.027c0.754-0.005,2.983,0.354,2.993,2.952c0.01,2.218-1.78,3.063-2.932,3.07
		l-6.79,0.026L-46.999-60.509z M-52.383-64.711l13.724-0.056c2.952,0,6.806,2.847,6.824,7.118c0.023,5.378-4.72,7.01-6.801,7.016
		l-8.387,0.035l0.015,3.475l-5.305,0.021L-52.383-64.711z"/>
	<path class="st4" d="M-80.104-54.352l-6.753,0.028c-0.752,0.002-2.983-0.53-2.994-3.129c-0.009-2.22,1.787-2.89,2.93-2.893
		l6.792-0.027L-80.104-54.352z M-74.712-50.327l-13.734,0.055c-2.95,0.009-6.802-2.844-6.82-7.114
		c-0.021-5.378,4.719-7.167,6.802-7.177l8.386-0.034l-0.014-3.317l5.307-0.02L-74.712-50.327z"/>
</g>
<g>
	<g transform="translate(42 .866)">
		<defs>
			<filter id="Adobe_OpacityMaskFilter" filterUnits="userSpaceOnUse" x="-10.608" y="-86.736" width="35.965" height="35.967">
				<feColorMatrix  type="matrix" values="1 0 0 0 0  0 1 0 0 0  0 0 1 0 0  0 0 0 1 0"/>
			</filter>
		</defs>
		<mask maskUnits="userSpaceOnUse" x="-10.608" y="-86.736" width="35.965" height="35.967" id="b_2_">
			<g class="st5">
				<path id="a_2_" class="st6" d="M-10.608-86.736h35.965v35.967h-35.965V-86.736z"/>
			</g>
		</mask>
		<path class="st7" d="M-10.608-68.752c0-9.932,8.051-17.984,17.983-17.984c9.932,0,17.981,8.052,17.981,17.984
			c0,9.931-8.05,17.983-17.981,17.983C-2.557-50.769-10.608-58.821-10.608-68.752"/>
	</g>
	<path class="st8" d="M37.547-67.886c0-6.532,5.295-11.827,11.826-11.827c6.532,0,11.827,5.295,11.827,11.827
		c0,6.532-5.295,11.826-11.827,11.826C42.843-56.06,37.547-61.355,37.547-67.886"/>
	<path class="st9" d="M43.542-67.886c0-3.221,2.612-5.833,5.832-5.833s5.832,2.612,5.832,5.833c0,3.221-2.611,5.832-5.832,5.832
		C46.153-62.054,43.542-64.666,43.542-67.886"/>
	<path class="st9" d="M4.668-41.98v1.408h3.933v10.526h1.579v-10.526h3.948v-1.408H4.668z M17.351-36.713h3.395
		c0.721,0,1.286-0.074,1.693-0.219c0.408-0.152,0.716-0.392,0.927-0.717c0.212-0.332,0.317-0.689,0.317-1.074
		c0-0.564-0.205-1.029-0.617-1.393c-0.407-0.363-1.053-0.545-1.937-0.545h-3.778V-36.713z M15.772-30.045V-41.98h5.291
		c1.064,0,1.872,0.108,2.426,0.325c0.554,0.212,0.994,0.59,1.325,1.132c0.333,0.543,0.498,1.142,0.498,1.799
		c0,0.846-0.275,1.56-0.822,2.141c-0.55,0.581-1.396,0.95-2.541,1.108c0.417,0.2,0.734,0.397,0.953,0.593
		c0.46,0.424,0.898,0.953,1.31,1.588l2.077,3.249h-1.986l-1.58-2.483c-0.461-0.717-0.841-1.265-1.139-1.644
		c-0.299-0.38-0.568-0.647-0.807-0.797c-0.233-0.153-0.472-0.259-0.716-0.318c-0.179-0.039-0.472-0.057-0.879-0.057h-1.832v5.299
		L15.772-30.045z M28.055-30.045h1.579V-41.98h-1.579V-30.045z"/>
	<g>
		<path class="st9" d="M40.934-34.23l1.579,0.399c-0.332,1.297-0.927,2.288-1.791,2.971c-0.856,0.678-1.908,1.017-3.15,1.017
			c-1.287,0-2.333-0.261-3.142-0.781c-0.804-0.526-1.417-1.286-1.841-2.279c-0.418-0.993-0.626-2.059-0.626-3.199
			c0-1.243,0.236-2.325,0.709-3.249c0.477-0.927,1.153-1.63,2.027-2.108c0.879-0.482,1.845-0.724,2.897-0.724
			c1.196,0,2.199,0.304,3.013,0.912c0.813,0.609,1.381,1.462,1.701,2.565l-1.555,0.366c-0.276-0.868-0.679-1.5-1.205-1.897
			c-0.526-0.396-1.189-0.593-1.986-0.594c-0.917,0-1.685,0.219-2.304,0.659c-0.613,0.439-1.044,1.031-1.294,1.774
			c-0.25,0.738-0.375,1.501-0.375,2.288c0,1.015,0.146,1.902,0.44,2.662c0.299,0.754,0.76,1.318,1.384,1.692
			c0.624,0.375,1.299,0.562,2.027,0.562c0.884,0,1.634-0.255,2.247-0.765C40.301-32.469,40.716-33.226,40.934-34.23 M45.607-35.833
			c0,1.438,0.385,2.572,1.156,3.402c0.776,0.825,1.748,1.239,2.914,1.239c1.188,0,2.165-0.418,2.931-1.254
			c0.77-0.835,1.156-2.021,1.156-3.557c0-0.97-0.165-1.818-0.497-2.541c-0.325-0.726-0.806-1.287-1.44-1.684
			c-0.63-0.402-1.338-0.602-2.125-0.602c-1.118,0-2.082,0.385-2.891,1.156C46.008-38.91,45.607-37.63,45.607-35.833 M43.978-35.857
			c0-1.982,0.532-3.531,1.596-4.649c1.064-1.123,2.437-1.685,4.12-1.685c1.101,0,2.095,0.264,2.979,0.79
			c0.885,0.527,1.557,1.262,2.018,2.206c0.468,0.939,0.701,2.006,0.701,3.199c0,1.211-0.245,2.293-0.732,3.248
			c-0.489,0.955-1.181,1.68-2.077,2.174c-0.895,0.488-1.86,0.732-2.897,0.732c-1.124,0-2.129-0.27-3.013-0.813
			c-0.884-0.542-1.555-1.284-2.011-2.222C44.206-33.817,43.978-34.81,43.978-35.857"/>
	</g>
	<path class="st9" d="M57.361-30.046V-41.98h1.579v10.526h5.878v1.408H57.361z"/>
	<g>
		<path class="st9" d="M67.847-35.833c0,1.438,0.385,2.572,1.156,3.402c0.776,0.825,1.746,1.239,2.914,1.239
			c1.188,0,2.165-0.418,2.931-1.254c0.77-0.835,1.156-2.021,1.156-3.557c0-0.97-0.166-1.818-0.497-2.541
			c-0.326-0.726-0.806-1.287-1.441-1.684c-0.63-0.402-1.338-0.602-2.124-0.602c-1.119,0-2.082,0.385-2.891,1.156
			C68.248-38.91,67.847-37.63,67.847-35.833 M66.218-35.857c0-1.982,0.532-3.531,1.596-4.649c1.064-1.123,2.435-1.685,4.118-1.685
			c1.102,0,2.095,0.264,2.98,0.79c0.886,0.527,1.557,1.262,2.019,2.206c0.467,0.939,0.7,2.006,0.7,3.199
			c0,1.211-0.243,2.293-0.733,3.248c-0.487,0.955-1.18,1.68-2.075,2.174c-0.895,0.488-1.862,0.732-2.897,0.732
			c-1.123,0-2.128-0.27-3.013-0.813c-0.884-0.542-1.554-1.284-2.01-2.222C66.446-33.817,66.218-34.81,66.218-35.857 M81.27-36.713
			h3.394c0.721,0,1.286-0.074,1.694-0.219c0.406-0.152,0.717-0.392,0.927-0.717c0.212-0.332,0.317-0.689,0.317-1.074
			c0-0.564-0.205-1.029-0.617-1.393c-0.407-0.363-1.053-0.545-1.937-0.545H81.27C81.27-40.661,81.27-36.713,81.27-36.713z
			 M79.691-30.045V-41.98h5.292c1.064,0,1.872,0.108,2.426,0.325c0.554,0.212,0.996,0.59,1.327,1.132
			c0.332,0.543,0.497,1.142,0.497,1.799c0,0.846-0.274,1.56-0.823,2.141c-0.549,0.581-1.395,0.95-2.539,1.108
			c0.417,0.2,0.734,0.397,0.953,0.593c0.461,0.424,0.897,0.953,1.31,1.588l2.075,3.249h-1.985l-1.58-2.483
			c-0.462-0.717-0.841-1.265-1.14-1.644c-0.299-0.38-0.567-0.647-0.806-0.797c-0.233-0.153-0.472-0.259-0.715-0.318
			c-0.18-0.039-0.474-0.057-0.88-0.057H81.27v5.299L79.691-30.045L79.691-30.045z M92.281-31.818h0.369
			c0.177,0,0.298-0.025,0.361-0.079c0.065-0.051,0.097-0.122,0.097-0.209c0-0.056-0.015-0.106-0.046-0.148
			c-0.032-0.045-0.075-0.079-0.13-0.101c-0.056-0.022-0.156-0.032-0.305-0.032h-0.347V-31.818z M91.977-30.754v-1.889h0.649
			c0.222,0,0.382,0.018,0.481,0.054c0.1,0.034,0.178,0.095,0.238,0.182c0.06,0.086,0.089,0.179,0.089,0.276
			c0,0.139-0.049,0.258-0.149,0.361c-0.099,0.101-0.229,0.16-0.39,0.172c0.065,0.028,0.12,0.061,0.159,0.1
			c0.076,0.075,0.169,0.2,0.28,0.376l0.23,0.369H93.19l-0.166-0.299c-0.132-0.234-0.239-0.381-0.318-0.439
			c-0.058-0.043-0.138-0.066-0.246-0.066h-0.178v0.803H91.977L91.977-30.754z M92.747-33.189c-0.247,0-0.487,0.063-0.721,0.191
			c-0.232,0.125-0.415,0.307-0.547,0.541c-0.131,0.234-0.197,0.479-0.197,0.733c0,0.252,0.064,0.496,0.193,0.728
			c0.13,0.231,0.312,0.413,0.545,0.543c0.232,0.128,0.474,0.193,0.728,0.193c0.252,0,0.495-0.065,0.728-0.193
			c0.233-0.13,0.414-0.311,0.542-0.543c0.128-0.232,0.193-0.475,0.193-0.728c0-0.254-0.066-0.499-0.197-0.733
			c-0.13-0.235-0.313-0.416-0.547-0.541C93.232-33.126,92.991-33.189,92.747-33.189L92.747-33.189z M92.747-33.48
			c0.295,0,0.581,0.076,0.862,0.228c0.281,0.15,0.499,0.366,0.657,0.648c0.157,0.281,0.235,0.574,0.235,0.88
			c0,0.302-0.077,0.593-0.232,0.872c-0.154,0.279-0.37,0.496-0.65,0.652c-0.278,0.153-0.568,0.23-0.872,0.23
			c-0.304,0-0.596-0.077-0.875-0.23c-0.277-0.155-0.494-0.373-0.648-0.652c-0.155-0.28-0.233-0.57-0.233-0.872
			c0-0.306,0.078-0.599,0.235-0.88c0.159-0.282,0.378-0.498,0.658-0.648C92.165-33.404,92.452-33.48,92.747-33.48z"/>
	</g>
</g>
<g id="g300_1_">
	<path id="path310_1_" class="st10" d="M214-41.409h-99.998v-33.332H214V-41.409z"/>
	<g id="g312_1_" transform="translate(404.711,35.0734)">
		<path id="path314_1_" class="st1" d="M-202.64-80.022h-3.154l2.495-6.251h3.156L-202.64-80.022z M-254.306-80.022h-3.157
			l2.495-6.251h3.156L-254.306-80.022z M-197.722-80.164l3.596-9.876h-9.687c-3.011,0.07-4.037,3.409-4.037,3.409l-2.421,6.467
			h-5.139l2.421-6.75h2.937l1.1-3.339h-2.715l1.761-4.691h-4.623l-1.981,4.834h-2.862l-1.176,3.268h3.008l-2.567,6.748h-5.137
			l3.597-10.016h-4.478l-3.962,10.052l-3.962,0.036l-0.956-3.694l6.458-6.324h-5.356l-5.137,4.902l3.448-9.806h-4.477l-5.651,14.85
			h-3.669l3.523-9.946h-9.909c-2.573,0-3.67,2.771-3.67,2.771l-2.862,7.106h-3.669l3.597-9.876h-7.855l0.881-2.486h-7.779
			l0.806-2.418h-14.386v4.122h8.22l-5.425,14.339h4.697l4.618-12.066h3.083l-4.324,12.066h4.694l3.666-9.791h3.377l-3.81,9.791
			h6.324c0.154-0.11,1.344-0.953,3.175-2.295c0,0,0.434,1.748,1.843,2.295h3.319c0.07-0.09,0.538-0.519,2.802-2.367
			c0,0,0.109,1.646,1.658,2.367h4.004c0.09-0.104,0.712-0.786,2.631-2.349l-0.912,2.349h4.735l2.637-6.88l2.123,6.88h4.86
			l2.41-2.331c0.376,1.933,1.756,2.275,2.158,2.331h5.341l2.482-2.261c0.204,1.509,1.841,2.168,2.093,2.261h5.336l2.407-2.331
			c0.294,1.989,2.348,2.331,2.348,2.331h3.229l2.275-2.331c0.368,1.989,2.57,2.331,2.57,2.331h9.357v-3.681H-197.722z
			 M-219.961-94.944h-4.475l-1.322,3.695h4.478L-219.961-94.944z"/>
	</g>
</g>
<g>
	<rect x="247.882" y="-89.677" class="st6" width="63.206" height="63.204"/>
	<polygon class="st11" points="268.61,-31.462 264.298,-27.15 269.45,-27.15 273.76,-31.462 	"/>
	<polygon class="st11" points="278.951,-31.462 274.639,-27.15 279.789,-27.15 284.101,-31.462 	"/>
	<polygon class="st11" points="289.291,-31.462 284.98,-27.15 290.13,-27.15 294.442,-31.462 	"/>
	<path class="st11" d="M283.986-41.688l9.468-9.469c-2.05,0.637-4.274,1.135-6.626,1.475l-7.993,7.993H283.986z"/>
	<path class="st11" d="M273.645-41.688l7.503-7.503c-0.523,0.016-1.05,0.025-1.581,0.025c-1.179,0-2.337-0.043-3.476-0.119
		l-7.596,7.596H273.645z"/>
	<polygon class="st11" points="258.269,-31.462 253.958,-27.15 259.109,-27.15 263.419,-31.462 	"/>
	<polygon class="st11" points="310.41,-27.151 310.41,-31.899 305.661,-27.151 	"/>
	<path class="st11" d="M306.679-64.38l3.731-3.731v-5.15l-5.19,5.19C306.006-66.903,306.506-65.665,306.679-64.38"/>
	<polygon class="st11" points="299.632,-31.462 295.32,-27.15 300.471,-27.15 304.782,-31.462 	"/>
	<polygon class="st11" points="294.327,-41.688 310.41,-57.771 310.41,-62.92 289.176,-41.688 	"/>
	<path class="st11" d="M299.708-72.901c1.132,0.652,2.15,1.361,3.036,2.114l7.665-7.665v-5.15L299.708-72.901z"/>
	<polygon class="st11" points="305.248,-31.927 310.41,-37.09 310.41,-42.24 305.248,-37.078 	"/>
	<polygon class="st11" points="304.667,-41.688 310.41,-47.431 310.41,-52.58 299.518,-41.688 	"/>
	<path class="st6" d="M252.378-63.365c0-7.839,12.174-14.198,27.189-14.198c15.015,0,27.189,6.359,27.189,14.198
		c0,7.847-12.174,14.199-27.189,14.199C264.552-49.165,252.378-55.517,252.378-63.365"/>
	<path class="st11" d="M271.161-59.053c0,0.973-0.766,1.593-2.299,1.857c-0.291,0.056-0.678,0.097-1.16,0.126
		c-0.483,0.028-0.917,0.041-1.621,0.041c-1.518,0-2.401-0.041-2.967-0.126c-1.748-0.25-2.621-0.835-2.621-1.753v-2.213h3.609v1.86
		c0,0.405,0.537,0.606,1.932,0.606c0.598,0,0.851-0.035,1.082-0.104c0.291-0.071,0.437-0.244,0.437-0.522v-3.484
		c0-0.75-4.572-1.307-5.519-1.8c-0.948-0.493-1.541-1.537-1.541-2.609v-3.422c0-0.999,1.944-2.111,2.936-2.111
		c0.706,0,1.548-0.041,2.468-0.041c3.433,0,4.989,0.529,4.989,1.586v2.193h-3.609v-1.235c0-0.278-0.023-0.451-0.069-0.521
		c-0.215-0.279-0.636-0.418-1.586-0.418c-0.965,0-1.389,0.139-1.518,0.393v3.129c0,0.746,4.722,1.609,6.072,2.271
		c0.608,0.298,0.988,1.003,0.988,1.712V-59.053z"/>
	<path class="st11" d="M276.046-68.734h-3.436v-3.052h3.436V-68.734z M276.046-57.207h-3.414v-10.128h3.414V-57.207z"/>
	<path class="st11" d="M287.987-58.943c0,0.908-0.732,1.488-2.197,1.737c-0.609,0.119-1.686,0.178-2.919,0.178
		c-0.769,0-1.285-0.02-1.864-0.059v3.652h-3.414v-12.083c0-1.144,1.596-1.717,5.105-1.717c3.421,0,5.289,0.526,5.289,1.58V-58.943z
		 M284.573-64.853c0-0.276-0.021-0.454-0.065-0.533v0.019c-0.203-0.21-0.889-0.315-1.744-0.315c-1.031,0-1.489,0.092-1.692,0.276
		c-0.044,0.039-0.064,0.231-0.064,0.573v5.679c0,0.382,0.501,0.573,1.82,0.573c0.566,0,1.115-0.033,1.333-0.099
		c0.274-0.065,0.413-0.23,0.413-0.494V-64.853z"/>
	<path class="st11" d="M299.463-57.684c0,0-0.557,0.211-1.415,0.383c-0.612,0.124-1.884,0.272-3.711,0.272
		c-3.393,0-4.931-0.487-4.931-1.461v-3.337c0-0.961,1.373-1.441,4.431-1.441h2.191v-1.903c0-0.369-0.503-0.553-1.821-0.553
		c-0.551,0-0.792,0.033-1.039,0.099c-0.26,0.079-0.391,0.238-0.391,0.474v0.816h-3.414v-0.987c0-0.908,0.725-1.488,2.175-1.737
		c0.609-0.119,1.371-0.178,2.604-0.178c1.435,0,2.27,0.039,2.823,0.118c1.652,0.238,2.5,0.79,2.5,1.66V-57.684z M296.027-61.734
		h-1.777c-0.813,0-1.162,0.092-1.366,0.276v-0.02c-0.043,0.067-0.064,0.204-0.064,0.414v1.831c0,0.224,0.021,0.362,0.064,0.414
		v-0.02c0.232,0.186,0.582,0.278,1.366,0.278c1.013,0,1.48-0.092,1.712-0.278c0.044-0.052,0.065-0.243,0.065-0.572V-61.734z"/>
	<path class="st12" d="M253.723-41.688h9.375l8.156-8.156c-10.949-1.833-18.877-7.189-18.877-13.521
		c0-7.839,12.175-14.198,27.189-14.198c6.204,0,11.917,1.087,16.493,2.914l14.35-14.35h-61.849v61.849l5.162-5.162V-41.688z"/>
	<rect x="253.722" y="-41.688" class="st1" width="51.525" height="10.226"/>
	<path class="st13" d="M259.939-38.658c-0.332-0.195-0.825-0.294-1.466-0.294h-1.747v4.715h1.123v-2.039h0.624
		c0.641,0,1.135-0.096,1.467-0.286c0.292-0.176,0.441-0.41,0.441-0.694v-0.714C260.381-38.254,260.233-38.487,259.939-38.658
		 M257.849-38.321h0.618c0.167,0,0.312,0.037,0.434,0.111c0.111,0.067,0.164,0.144,0.164,0.236v0.721
		c0,0.097-0.053,0.176-0.163,0.24c-0.121,0.071-0.268,0.108-0.435,0.108h-0.618V-38.321z"/>
	<path class="st13" d="M263.194-38.951v3.772c0,0.089-0.055,0.164-0.166,0.228c-0.124,0.071-0.271,0.107-0.438,0.107
		c-0.164,0-0.306-0.035-0.419-0.105c-0.104-0.064-0.154-0.139-0.154-0.23v-3.772h-1.314v3.772c0,0.284,0.148,0.517,0.441,0.688
		c0.324,0.195,0.816,0.294,1.457,0.294c0.641,0,1.134-0.099,1.466-0.294c0.292-0.171,0.442-0.403,0.442-0.688v-3.772H263.194z"/>
	<path class="st13" d="M268.708-37.256v-0.714c0-0.284-0.15-0.517-0.442-0.688c-0.332-0.195-0.825-0.294-1.466-0.294h-1.748v4.715
		h1.124v-2.039h0.626c0.168,0.005,0.312,0.044,0.431,0.115c0.107,0.063,0.159,0.138,0.159,0.23v1.694h1.315v-1.694
		c0-0.274-0.135-0.495-0.399-0.66C268.573-36.76,268.708-36.983,268.708-37.256 M266.176-38.321h0.618
		c0.167,0,0.312,0.037,0.434,0.111c0.111,0.067,0.164,0.144,0.164,0.236v0.721c0,0.092-0.052,0.171-0.159,0.238
		c-0.119,0.073-0.263,0.111-0.429,0.111h-0.629V-38.321z"/>
	<path class="st13" d="M272.615-38.658c-0.332-0.195-0.825-0.294-1.466-0.294c-0.641,0-1.132,0.099-1.457,0.294
		c-0.292,0.171-0.441,0.403-0.441,0.688v3.772h1.314v-2.015h1.176v2.015h1.315v-3.772C273.057-38.254,272.908-38.487,272.615-38.658
		 M270.566-37.975c0-0.097,0.051-0.176,0.155-0.239c0.115-0.071,0.256-0.107,0.423-0.107c0.166,0,0.312,0.037,0.434,0.111
		c0.111,0.067,0.164,0.143,0.164,0.235v1.008h-1.176V-37.975z"/>
	<path class="st13" d="M278.37-38.658c-0.332-0.195-0.825-0.294-1.466-0.294h-1.747v4.715h1.123v-2.039h0.624
		c0.641,0,1.135-0.096,1.467-0.286c0.292-0.176,0.441-0.41,0.441-0.694v-0.714C278.812-38.254,278.664-38.487,278.37-38.658
		 M276.281-38.321h0.618c0.167,0,0.312,0.037,0.434,0.111c0.111,0.067,0.164,0.144,0.164,0.236v0.721
		c0,0.097-0.053,0.176-0.163,0.24c-0.121,0.071-0.268,0.108-0.435,0.108h-0.618V-38.321z"/>
	<rect x="279.134" y="-38.952" class="st13" width="1.123" height="4.715"/>
	<polygon class="st13" points="283.705,-38.951 283.705,-36.127 281.933,-38.914 281.91,-38.951 280.822,-38.951 280.822,-34.238 
		281.946,-34.238 281.946,-37.045 283.708,-34.274 283.73,-34.238 284.828,-34.238 284.828,-38.951 	"/>
	<polygon class="st13" points="285.241,-38.951 285.241,-38.196 286.858,-38.196 286.858,-34.238 287.983,-34.238 287.983,-38.196 
		289.6,-38.196 289.6,-38.951 	"/>
	<path class="st13" d="M292.383-38.951v3.772c0,0.089-0.055,0.164-0.166,0.228c-0.124,0.071-0.271,0.107-0.438,0.107
		c-0.164,0-0.306-0.035-0.419-0.105c-0.104-0.064-0.154-0.139-0.154-0.23v-3.772h-1.314v3.772c0,0.284,0.148,0.517,0.441,0.688
		c0.324,0.195,0.816,0.294,1.457,0.294s1.134-0.099,1.466-0.294c0.292-0.171,0.442-0.403,0.442-0.688v-3.772H292.383z"/>
	<path class="st13" d="M297.897-37.256v-0.714c0-0.284-0.15-0.517-0.442-0.688c-0.332-0.195-0.825-0.294-1.466-0.294h-1.748v4.715
		h1.124v-2.039h0.626c0.168,0.005,0.312,0.044,0.431,0.115c0.107,0.063,0.159,0.138,0.159,0.23v1.694h1.315v-1.694
		c0-0.274-0.135-0.495-0.399-0.66C297.762-36.76,297.897-36.983,297.897-37.256 M295.365-38.321h0.618
		c0.167,0,0.312,0.037,0.434,0.111c0.111,0.067,0.164,0.144,0.164,0.236v0.721c0,0.092-0.052,0.171-0.159,0.238
		c-0.119,0.073-0.263,0.111-0.429,0.111h-0.629V-38.321z"/>
	<path class="st13" d="M301.804-38.658c-0.332-0.195-0.825-0.294-1.466-0.294c-0.641,0-1.132,0.099-1.457,0.294
		c-0.292,0.171-0.441,0.403-0.441,0.688v3.772h1.314v-2.015h1.176v2.015h1.315v-3.772C302.246-38.254,302.096-38.487,301.804-38.658
		 M299.754-37.975c0-0.097,0.051-0.176,0.155-0.239c0.115-0.071,0.256-0.107,0.423-0.107c0.166,0,0.312,0.037,0.434,0.111
		c0.111,0.067,0.164,0.143,0.164,0.235v1.008h-1.176V-37.975z"/>
</g>
<g>
	<path class="st14" d="M375.059-34.91c-0.802,0.62-1.927,0.97-2.996,0.97c-2.377,0-3.742-1.589-3.742-4.163
		c0-3.643,2.18-6.161,5.345-6.161c1.069,0,2.054,0.352,2.644,0.956l-1.28,1.506c-0.365-0.38-0.942-0.59-1.546-0.59
		c-1.688,0-2.73,1.659-2.73,4.206c0,1.546,0.591,2.391,1.674,2.391c0.647,0,1.322-0.239,1.843-0.619L375.059-34.91z"/>
	<path class="st14" d="M378.139-37.301c0.042,1.055,0.563,1.631,1.547,1.631c0.563,0,1.308-0.196,1.828-0.505l0.676,1.223
		c-0.787,0.619-2.053,1.012-3.165,1.012c-1.97,0-3.109-1.265-3.109-3.291c0-2.87,1.787-4.811,4.389-4.811
		c1.814,0,2.785,1.126,2.785,2.997c0,0.59-0.126,1.111-0.323,1.744H378.139z M380.952-38.679c0.014-0.127,0.014-0.253,0.014-0.394
		c0-0.858-0.324-1.35-0.971-1.35c-0.9,0-1.476,0.731-1.73,1.744H380.952z"/>
	<path class="st14" d="M394.764-39.664l-0.873,5.472h-2.236l0.816-5.134c0.099-0.605-0.084-0.956-0.52-0.956
		c-0.423,0-0.873,0.296-1.21,0.83l-0.83,5.261h-2.237l0.817-5.134c0.113-0.633-0.057-0.956-0.478-0.956
		c-0.436,0-0.914,0.296-1.266,0.844l-0.83,5.246h-2.236l1.209-7.595h2.138l-0.141,0.886c0.563-0.69,1.477-1.14,2.279-1.14
		c0.844,0,1.407,0.45,1.59,1.21c0.563-0.746,1.49-1.21,2.293-1.21C394.37-42.041,394.989-41.156,394.764-39.664"/>
	<path class="st14" d="M397.955-37.301c0.042,1.055,0.563,1.631,1.547,1.631c0.563,0,1.308-0.196,1.829-0.505l0.675,1.223
		c-0.787,0.619-2.053,1.012-3.165,1.012c-1.969,0-3.108-1.265-3.108-3.291c0-2.87,1.786-4.811,4.388-4.811
		c1.815,0,2.785,1.126,2.785,2.997c0,0.59-0.126,1.111-0.323,1.744H397.955z M400.768-38.679c0.014-0.127,0.014-0.253,0.014-0.394
		c0-0.858-0.324-1.35-0.97-1.35c-0.9,0-1.477,0.731-1.73,1.744H400.768z"/>
	<path class="st14" d="M410.824-39.664l-0.873,5.472h-2.222l0.816-5.134c0.084-0.605-0.14-0.956-0.633-0.956
		c-0.478,0-0.999,0.323-1.364,0.9l-0.816,5.19h-2.236l1.209-7.595h2.138l-0.141,0.886c0.605-0.731,1.534-1.14,2.349-1.14
		C410.346-42.041,411.05-41.084,410.824-39.664"/>
	<path class="st14" d="M412.244-36.401l0.605-3.77h-1.07l0.197-1.322l0.731-0.169c0.253-0.071,0.393-0.155,0.52-0.521l0.408-1.237
		h1.941l-0.254,1.632h1.815l-0.267,1.617h-1.801l-0.563,3.587c-0.098,0.619,0.113,0.858,0.577,0.858
		c0.296,0,0.676-0.084,1.126-0.253v1.632c-0.704,0.281-1.35,0.408-1.913,0.408C412.863-33.939,411.991-34.797,412.244-36.401"/>
	<path class="st14" d="M424.552-38.75c0,2.87-1.773,4.81-4.389,4.81c-1.97,0-3.109-1.266-3.109-3.306
		c0-2.856,1.786-4.796,4.389-4.796C423.426-42.041,424.552-40.776,424.552-38.75 M422.244-38.651c0-1.013-0.38-1.617-1.083-1.617
		c-1.126,0-1.786,1.266-1.786,2.926c0,1.027,0.365,1.646,1.069,1.646C421.569-35.697,422.244-36.991,422.244-38.651"/>
	<path class="st14" d="M429.051-38.82c0.957,0.267,2.152,0.633,2.152,2.026c0,1.702-1.589,2.855-3.783,2.855
		c-1.14,0-2.307-0.422-2.897-1.069l1.167-1.336c0.478,0.422,1.224,0.717,1.899,0.717c0.788,0,1.266-0.31,1.266-0.802
		c0-0.463-0.422-0.59-1.126-0.801c-0.913-0.267-2.166-0.704-2.166-2.097c0-1.66,1.365-2.715,3.446-2.715
		c1,0,2.111,0.337,2.771,0.873l-1.182,1.336c-0.379-0.31-1.04-0.52-1.673-0.52c-0.634,0-1.097,0.296-1.097,0.717
		C427.828-39.186,428.278-39.045,429.051-38.82"/>
	<path class="st14" d="M383.792-82.21h-8.854c-3.011,0-6.012,0.546-7.953,2.274c-4.724,4.206-4.864,9.141-3.835,13.508
		c0.007,0.029,0.013,0.059,0.02,0.088c0.027,0.111,0.057,0.22,0.085,0.329c0.526,1.908,1.645,4.012,3.118,5.681
		c-0.05-0.719-0.049-1.514,0.007-2.393c0.03-0.47,0.073-0.961,0.132-1.48c0.385-3.345,1.417-5.869,2.766-7.693
		c0.867-1.107,2.026-2.249,3.444-2.984c1.419-0.734,3.035-0.81,3.494-0.834c0.66-0.033,1.319,0,1.96,0h5
		c0.494,0,0.911-0.365,0.977-0.854l0.613-4.525C384.849-81.684,384.39-82.21,383.792-82.21"/>
	<path class="st15" d="M433.056-68.636c-0.643-2.383-2.122-3.966-4.481-4.736c-1.02-0.332-2.08-0.513-3.173-0.596
		c-1.541-0.116-3.095-0.034-4.661,0.31c-0.486,0.107-0.97,0.232-1.498,0.36c-0.003-0.194-0.02-0.326-0.003-0.458
		c0.312-2.518,0.635-5.035,0.944-7.553c0.101-0.819,0.028-0.896-0.771-0.897c-1.999-0.004-3.999-0.004-6,0
		c-0.779,0.002-0.841,0.058-0.938,0.851c-1.255,10.21-2.509,20.42-3.759,30.63h-0.001l-0.247,1.941
		c-0.033,0.257,0.167,0.484,0.426,0.484h10.684l-0.018-0.004c1.695-0.023,3.395-0.193,5.111-0.649
		c2.213-0.588,4.119-1.711,5.574-3.593c1.482-1.917,2.143-4.08,2.47-6.317c0.244-1.67,0.437-3.341,0.617-5.012
		C433.51-65.506,433.47-67.105,433.056-68.636 M425.707-62.972c-0.097,1.173-0.222,2.352-0.439,3.522
		c-0.172,0.929-0.435,1.866-0.776,2.769c-0.606,1.609-1.869,2.332-3.53,2.421c-1.179,0.063-2.351,0.017-3.524,0.004
		c-0.621-0.007-0.675-0.067-0.6-0.697c0.238-1.997,1.208-9.891,1.452-11.84c0.084-0.673,0.168-0.759,0.816-0.935
		c1.545-0.42,3.073-0.441,4.575-0.28c1.195,0.129,1.985,1.055,2.067,2.383C425.801-64.752,425.78-63.86,425.707-62.972"/>
	<path class="st15" d="M407.688-68.636c-0.643-2.383-2.122-3.966-4.481-4.736c-1.02-0.332-2.08-0.513-3.173-0.596
		c-1.541-0.116-3.095-0.034-4.661,0.31c-0.486,0.107-0.97,0.232-1.498,0.36c-0.003-0.194-0.02-0.326-0.003-0.458
		c0.312-2.518,0.635-5.035,0.944-7.553c0.101-0.819,0.028-0.896-0.771-0.897c-1.999-0.004-3.999-0.004-6,0
		c-0.779,0.002-0.841,0.058-0.938,0.851c-1.255,10.21-2.509,20.42-3.759,30.63h-0.001l-0.247,1.941
		c-0.033,0.257,0.167,0.484,0.426,0.484h10.684l-0.018-0.004c1.695-0.023,3.395-0.193,5.111-0.649
		c2.213-0.588,4.119-1.711,5.574-3.593c1.482-1.917,2.143-4.08,2.47-6.317c0.244-1.67,0.437-3.341,0.617-5.012
		C408.142-65.506,408.102-67.105,407.688-68.636 M400.339-62.972c-0.097,1.173-0.222,2.352-0.439,3.522
		c-0.172,0.929-0.435,1.866-0.776,2.769c-0.606,1.609-1.869,2.332-3.53,2.421c-1.179,0.063-2.351,0.017-3.524,0.004
		c-0.621-0.007-0.675-0.067-0.6-0.697c0.238-1.997,1.208-9.891,1.452-11.84c0.084-0.673,0.168-0.759,0.816-0.935
		c1.545-0.42,3.073-0.441,4.575-0.28c1.195,0.129,1.985,1.055,2.067,2.383C400.433-64.752,400.412-63.86,400.339-62.972"/>
	<path class="st15" d="M381.118-57.397c-2.526,1.403-8.45,2.905-12.733,1.583c-2.883-0.889-4.827-2.636-6.051-4.81v0.003
		c-1.161-1.813-2.264-6.138-2.466-9.434c-1.648,4.285-2.605,9.57-0.171,15.517c1.491,3.789,5.352,5.907,7.904,6.17
		c5.026,0.608,9.78-0.35,13.03-1.639c0.21-0.083,0.352-0.274,0.38-0.497l0.075-0.611v-0.004l0.316-2.558c0-0.002,0-0.004,0-0.005
		l0.401-3.26C381.849-57.318,381.449-57.58,381.118-57.397"/>
</g>
<g>
	<rect x="-113" y="24.893" class="st16" width="23.505" height="20.215"/>
	<g>
		<g>
			<defs>
				<rect id="SVGID_3_" x="-113" y="24.892" width="100" height="20.215"/>
			</defs>
			<clipPath id="SVGID_4_">
				<use xlink:href="#SVGID_3_"  style="overflow:visible;"/>
			</clipPath>
			<rect x="-113.001" y="24.893" class="st17" width="23.506" height="20.215"/>
		</g>
	</g>
	<polygon class="st1" points="-102.554,36.516 -102.554,35.505 -98.636,35.505 -98.636,33.484 -94.718,33.484 -94.718,29.946 
		-107.777,29.946 -107.777,40.054 -94.718,40.054 -94.718,36.516 	"/>
	<path class="st18" d="M-69.369,40.054h4.535v-6.57h-4.535V40.054z M-62.89,33.484v6.57h4.535v-4.548h1.944v4.548h4.535v-6.57
		H-62.89z M-32.438,34.748h2.592v1.01h-2.592V34.748z M-36.973,33.484v6.57h11.015v-2.021h-6.479v-1.011h6.479v-3.538H-36.973z
		 M-84.271,29.947v10.108h12.958v-3.537h-7.775v-1.011h3.888v-2.022h3.887v-3.537h-12.958V29.947z M-69.369,31.968h4.535v-2.021
		h-4.535V31.968z M-49.932,29.947v10.108h4.536v-4.548h1.944v4.548h4.535v-6.57h-6.479v-3.537h-4.536V29.947z M-24.015,40.054h4.535
		V29.947h-4.535V40.054z M-17.535,40.054H-13V29.947h-4.535V40.054z"/>
</g>
<g>
	<path id="path322" class="st19" d="M78.609,43.116h0.686c0.324,0,0.549-0.05,0.667-0.145c0.122-0.099,0.179-0.229,0.179-0.389
		c0-0.103-0.03-0.198-0.088-0.278c-0.057-0.084-0.133-0.141-0.236-0.183c-0.103-0.042-0.29-0.061-0.568-0.061h-0.64L78.609,43.116z
		 M78.045,45.082v-3.494h1.2c0.412,0,0.709,0.03,0.892,0.099c0.183,0.061,0.328,0.175,0.438,0.335
		c0.11,0.16,0.164,0.332,0.164,0.511c0,0.255-0.091,0.48-0.274,0.667c-0.179,0.191-0.423,0.297-0.724,0.32
		c0.122,0.05,0.221,0.111,0.297,0.183c0.141,0.141,0.312,0.37,0.514,0.693l0.427,0.686h-0.69l-0.309-0.552
		c-0.244-0.434-0.438-0.705-0.587-0.812c-0.103-0.084-0.255-0.122-0.453-0.122h-0.331v1.486L78.045,45.082z M79.47,40.578
		c-0.457,0-0.899,0.118-1.33,0.351c-0.434,0.233-0.77,0.568-1.014,1.002c-0.244,0.434-0.366,0.884-0.366,1.356
		c0,0.469,0.118,0.914,0.358,1.345c0.24,0.427,0.575,0.762,1.006,0.998c0.427,0.24,0.876,0.362,1.345,0.362
		c0.469,0,0.914-0.122,1.345-0.362c0.431-0.236,0.766-0.572,1.002-0.998c0.24-0.431,0.358-0.876,0.358-1.345
		c0-0.472-0.122-0.922-0.366-1.356c-0.24-0.434-0.579-0.77-1.01-1.002C80.365,40.696,79.923,40.578,79.47,40.578 M79.47,40.041
		c0.545,0,1.078,0.137,1.596,0.419c0.518,0.278,0.922,0.678,1.212,1.2c0.29,0.518,0.434,1.063,0.434,1.627
		c0,0.56-0.145,1.094-0.427,1.612c-0.286,0.518-0.686,0.918-1.2,1.2c-0.514,0.29-1.052,0.431-1.616,0.431
		c-0.564,0-1.101-0.141-1.616-0.431c-0.514-0.282-0.914-0.682-1.2-1.2c-0.286-0.518-0.431-1.052-0.431-1.612
		c0-0.564,0.145-1.109,0.434-1.627c0.293-0.522,0.697-0.922,1.215-1.2C78.392,40.178,78.925,40.041,79.47,40.041"/>
	<path id="path324" class="st19" d="M49.998,5.936l33.541,58.128H16.461L49.998,5.936z"/>
	<path id="path326" class="st20" d="M45.007,46.293h-2.282c-0.32,0-0.625,0.259-0.682,0.579L40.13,57.354
		c-0.057,0.316,0.156,0.575,0.472,0.575h2.278c0.32,0,0.625-0.259,0.682-0.575l1.913-10.482
		C45.536,46.553,45.323,46.297,45.007,46.293"/>
	<path id="path328" class="st20" d="M46.371,41.969l0.358-1.985c0.057-0.316-0.152-0.575-0.472-0.575h-2.282
		c-0.316,0-0.621,0.259-0.678,0.575l-0.358,1.985c-0.057,0.316,0.152,0.575,0.472,0.575h2.278
		C46.009,42.544,46.314,42.285,46.371,41.969"/>
	<path id="path330" class="st20" d="M71.011,57.381c0.156-0.392,0.271-1.452,0.271-1.452c0.023-0.156,0.061-0.571-0.324-0.69
		c-0.381-0.114-1.292,0.022-1.292-0.571c0-0.21,0.713-3.719,0.785-4.843c0.076-1.124,0.008-2.606-1.837-3.334
		c-0.671-0.263-6.66-0.194-6.66-0.194c-0.354-0.003-0.674,0.221-0.72,0.507l-0.271,1.261c-0.046,0.286,0.21,0.518,0.564,0.526h4.134
		c1.475,0,2.012,0.282,2.038,0.533c0.03,0.255,0.069,1.696-0.552,1.669c-0.549-0.022-7.998-1.49-7.998,3.422
		c0,0.853-1.444,1.17-1.821,0.594c-0.381-0.579-2.317-2.515-2.332-2.858c-0.019-0.343,3.204-2.012,3.89-4.744
		c0.065-0.255,0.11-0.914-0.396-0.914c-0.358,0-1.692,0.003-1.966,0c-0.263-0.003-0.61,0.061-0.914,0.69
		c-1.33,3.075-4.801,3.78-4.557,2.637c0.084-0.373,4.043-22.271,4.043-22.271c0.061-0.316-0.152-0.575-0.472-0.575h-2.278
		c-0.32,0-0.625,0.259-0.682,0.575l-5.468,30.005c-0.057,0.32,0.152,0.575,0.472,0.575h2.282c0.316,0,0.621-0.255,0.678-0.575
		l0.64-3.391l0.004,0.003c0.187-0.488,0.469-0.701,1.094-0.701c2.252,0,3.399,4.828,5.7,4.869c1.383,0.022,3.033-1.025,3.349-1.033
		c0.663-0.019,1.036,1.033,3.25,1.033c1.97,0,3.399-0.72,3.86-0.72c0.408,0,1.265,0.438,1.692,0.552
		c1.048,0.278,1.642-0.194,1.795-0.587 M64.427,55.749c-1.696,0.08-2.625-0.735-2.625-1.532c0-1.093,1.68-1.444,3.041-1.395
		c1.364,0.05,2.301,0.343,2.267,1.414C67.083,55.033,65.868,55.681,64.427,55.749"/>
	<path id="path332" class="st20" d="M28.661,58.17c0.168-0.08,0.274-0.183,0.366-0.217c0.072-0.022,0.21-0.014,0.4,0.019
		l0.023,0.008c1.581,0.446,7.304,1.978,8.71-4.683c0,0,3.886-21.295,3.894-21.345c0.03-0.252,0.476-2.957,4.241-1.688
		c1.265,0.427,1.375-0.206,1.41-0.32l0.579-2.488c0.019-0.709-0.549-0.545-1.635-0.754c-0.834-0.156-1.078,0.29-1.265,0.381
		c-0.194,0.088-0.857-0.072-1.844-0.118c-0.572-0.028-4.016,0.404-4.709,3.768l-3.784,20.461c-0.171,0.613-0.114,6.394-6.752,3.132
		c-1.132-0.556-1.558-0.263-1.661,0.32c-0.069,0.415-0.385,2.515-0.438,2.941c-0.023,0.175,0.107,0.453,0.438,0.503
		c0.347,0.057,0.903,0.137,1.177,0.179c0.392,0.057,0.636,0.011,0.815-0.08L28.661,58.17"/>
</g>
<g>
	<path class="st21" d="M207.783,47.306V45.56h-0.335l-0.495,1.475h-0.005l-0.497-1.475h-0.339v1.746h0.228v-1.032
		c0-0.05-0.004-0.27-0.004-0.43h0.004l0.493,1.462h0.232l0.492-1.469h0.003c0,0.167-0.003,0.387-0.003,0.437v1.032H207.783z"/>
	<rect x="208.038" y="47.044" class="st21" width="0.249" height="0.262"/>
	<path class="st21" d="M209.259,46.557h0.571c0.281,0,0.314,0.168,0.314,0.309c0,0.064,0.005,0.331,0.039,0.44h0.29v-0.042
		c-0.074-0.039-0.087-0.078-0.087-0.173l-0.017-0.317c-0.008-0.241-0.11-0.287-0.21-0.328c0.115-0.063,0.243-0.16,0.243-0.42
		c0-0.365-0.286-0.465-0.572-0.465h-0.809v1.746h0.238V46.557z M209.259,45.764h0.589c0.117,0,0.311,0.02,0.311,0.287
		c0,0.259-0.181,0.303-0.354,0.303h-0.547V45.764z"/>
	<rect x="210.641" y="47.044" class="st21" width="0.255" height="0.262"/>
	<path class="st22" d="M117.086,48.97l1.25-15.746c0.533-6.729,4.966-10.952,11.582-10.952l70.182-0.003
		c5.485,0,7.851-0.545,8.606-0.695c0.756-0.15,2.209-0.544,2.209-0.544l-1.044,14.767c-0.64,10.718-9.575,11.474-10.798,11.474
		c-3.592,0-69.815,0.015-69.815,0.015c-4.051,0-7.504,0.448-10.103,1.097C117.717,48.744,117.086,48.97,117.086,48.97"/>
	<path class="st23" d="M207.567,25.098c-1.864,0.325-4.332,0.271-7.087,0.271h-70.424c-5.033,0-8.246,3.133-8.628,8.102
		l-0.973,11.407c1.929-0.426,5.059-0.736,9.094-0.736h69.348c0.29-0.008,7.048,0.108,7.829-8.247L207.567,25.098z"/>
	<path class="st8" d="M141.026,35.156c0.168-0.943,0.563-1.829,1.44-1.829c0.829,0,1.103,1.042,0.96,1.854L141.026,35.156z
		 M146.808,36.961c0.457-2.72,0.337-5.627-4.342-5.627c-3.596,0-5.316,1.835-5.758,4.923c-0.426,2.978,1.761,4.441,4.6,4.441
		c2.06,0,4.316-0.478,4.316-0.478l0.28-2.19c0,0-2.321,0.528-2.876,0.515c-1.92-0.041-2.464-0.536-2.281-1.583H146.808z"/>
	<path class="st8" d="M147.328,40.425l4.252,0.006l0.519-3.038c0.361-1.549,1.519-2.575,2.677-2.575
		c0.263,0,0.782,0.073,1.041,0.108l0.439-3.501c-0.164-0.018-0.329-0.051-0.499-0.052c-2.176-0.034-3.26,2.239-3.26,2.239
		l0.138-1.988l-3.932,0.007L147.328,40.425z"/>
	<path class="st8" d="M178.29,29.564c-0.068-0.792,0.856-1.515,2.066-1.621c1.209-0.104,2.247,0.448,2.313,1.239
		c0.072,0.789-0.854,1.516-2.06,1.618C179.397,30.908,178.36,30.353,178.29,29.564 M180.886,40.372l1.518-8.979h-4.354l-1.519,8.979
		H180.886z"/>
	<path class="st8" d="M197.071,33.979c1.193-0.145,2.03,0.57,1.875,1.655c-0.202,1.332-1.007,2.067-2.195,2.21
		c-1.194,0.147-1.893-0.504-1.959-1.594C194.721,35.162,195.879,34.125,197.071,33.979 M196.39,40.514
		c-2.727,0.359-4.682-1.259-4.839-3.945c-0.157-2.683,2.11-5.098,4.839-5.458c1.137-0.149,2.172,0.139,2.984,0.677l0.093-0.372
		h3.038l-1.158,8.98h-3.039l0.103-0.826C197.735,40.288,197.117,40.419,196.39,40.514"/>
	<path class="st8" d="M160.622,35.156c0.17-0.943,0.562-1.829,1.444-1.829c0.823,0,1.099,1.042,0.955,1.854L160.622,35.156z
		 M166.405,36.961c0.455-2.72,0.334-5.627-4.339-5.627c-3.599,0-5.317,1.835-5.762,4.923c-0.422,2.978,1.76,4.441,4.6,4.441
		c2.063,0,4.315-0.478,4.315-0.478l0.281-2.19c0,0-2.318,0.528-2.876,0.515c-1.918-0.041-2.465-0.536-2.281-1.583H166.405z"/>
	<path class="st8" d="M136.871,28.704c0.04,0.04-0.077-0.437-3.597-0.437c-3.679,0-7.308,2.483-7.834,6.437
		c-0.399,3.005,1.612,5.954,5.637,5.954c3.209,0,4.078-0.518,4.078-0.518l0.398-3.028c0,0-1.279,0.517-3.399,0.397
		c-2.022-0.113-2.675-1.432-2.518-2.749c0.287-2.359,2.105-2.939,3.477-3.226c1.719-0.359,3.281,0.318,3.281,0.318L136.871,28.704z"
		/>
	<path class="st8" d="M167.087,40.139c0,0,1.6,0.539,3.627,0.539c3.245,0,4.951-1.255,5.315-3.082
		c0.774-3.912-4.722-2.243-4.502-3.475c0.078-0.437,0.642-0.638,1.104-0.622c0.273,0.007,0.693-0.095,1.493,0.025
		c0.799,0.279,1.858,0.23,1.84,0.519l0.359-2.354c0,0-1.748-0.395-3.677-0.395c-1.842,0-4.601,0.703-4.969,2.964
		c-0.59,3.607,4.864,2.191,4.45,3.568c-0.12,0.397-0.702,0.565-1.24,0.595c-2,0.121-3.557-0.834-3.557-0.834L167.087,40.139z"/>
	<path class="st8" d="M190.434,37.629l-0.917,0.04c-0.984,0-1.065-0.467-0.922-1.277l0.356-2.413h2.044l0.357-2.486h-2.041
		l0.644-3.425l-4.517,1.354l-0.323,2.071h-1.637l-0.357,2.486h1.587l-0.652,3.69c-0.199,2.047,1.424,3.006,3.022,2.908
		c1.598-0.098,2.837-0.477,2.837-0.477L190.434,37.629z"/>
</g>
<g>
	<g>
		<defs>
			<rect id="SVGID_5_" x="248.991" y="4.506" width="60.987" height="60.987"/>
		</defs>
		<clipPath id="SVGID_6_">
			<use xlink:href="#SVGID_5_"  style="overflow:visible;"/>
		</clipPath>
		<path class="st24" d="M279.498,5.679c18.815,9.92,30.061,28.411,29.418,50.066c-17.828,11.741-41.503,11.499-58.885,0
			C249.815,33.417,260.765,15.892,279.498,5.679"/>
		<path class="st25" d="M279.499,5.68c18.815,9.92,30.06,28.41,29.418,50.065c-8.868,5.84-19.184,8.715-29.449,8.715
			c-10.375,0-20.699-2.936-29.438-8.715C249.815,33.417,260.766,15.892,279.499,5.68 M279.491,4.506l-0.489,0.267
			c-4.746,2.588-9.037,5.664-12.75,9.144c-3.734,3.498-6.923,7.443-9.483,11.722c-5.265,8.806-7.882,18.94-7.773,30.114l0.006,0.549
			l0.458,0.303c4.394,2.907,9.234,5.147,14.385,6.655c5.055,1.481,10.311,2.232,15.624,2.232c5.283,0,10.51-0.744,15.539-2.209
			c5.169-1.506,10.04-3.752,14.481-6.676l0.448-0.297l0.016-0.535c0.161-5.431-0.414-10.763-1.712-15.848
			c-1.271-4.99-3.239-9.747-5.845-14.142c-2.589-4.363-5.805-8.367-9.562-11.896c-3.78-3.552-8.103-6.621-12.851-9.123
			L279.491,4.506z"/>
	</g>
	<path class="st26" d="M279.47,8.547c13.984,8.207,22.579,20.517,25.944,36.676c-17.232,9.865-34.757,9.657-51.834,0
		C256.806,29.118,265.658,16.543,279.47,8.547"/>
	<polyline class="st6" points="254.751,48.511 256.24,49.238 255.165,51.889 257.969,50.085 259.636,50.899 256.442,52.714 
		257.359,57.135 255.509,56.23 254.907,52.528 253.754,55.372 252.265,54.644 	"/>
	<polyline class="st6" points="260.65,51.341 262.18,51.952 260.502,57.016 262.812,57.939 262.399,59.185 258.559,57.649 	"/>
	<polyline class="st6" points="265.595,53.184 267.16,53.677 265.476,60.132 263.909,59.638 	"/>
	<path class="st6" d="M268.477,54.099l1.996,0.426l1.039,4.322c0.036,0.146,0.072,0.346,0.109,0.599
		c0.037,0.253,0.063,0.285,0.099,0.65c0.007-0.336,0.032-0.367,0.056-0.643c0.025-0.278,0.056-0.529,0.097-0.755l0.661-3.734
		l1.444,0.309l-1.166,6.59l-1.988-0.425l-1.081-4.48c-0.051-0.207-0.092-0.428-0.123-0.664c-0.032-0.236-0.054-0.49-0.067-0.763
		c-0.012,0.405-0.035,0.774-0.067,1.11c-0.032,0.336-0.069,0.628-0.114,0.879l-0.616,3.479l-1.445-0.309"/>
	<path class="st6" d="M280.457,55.701l-0.187,1.39c-0.244-0.164-0.501-0.289-0.77-0.378c-0.27-0.087-0.548-0.137-0.834-0.147
		c-0.667-0.027-1.2,0.157-1.599,0.549c-0.398,0.392-0.608,0.938-0.63,1.64c-0.021,0.677,0.133,1.222,0.463,1.634
		c0.332,0.414,0.788,0.631,1.37,0.653c0.123,0.005,0.235,0.003,0.34-0.005c0.103-0.009,0.201-0.025,0.294-0.046l0.045-1.403
		l-0.942-0.036l0.04-1.267l2.456,0.095l-0.119,3.739c-0.325,0.087-0.661,0.15-1.009,0.188c-0.348,0.037-0.705,0.049-1.068,0.034
		c-1.189-0.046-2.083-0.375-2.681-0.987c-0.599-0.612-0.881-1.484-0.844-2.613c0.035-1.13,0.376-1.996,1.022-2.601
		c0.645-0.603,1.535-0.883,2.665-0.841c0.338,0.013,0.673,0.054,1.005,0.121C279.807,55.489,280.134,55.581,280.457,55.701"/>
	<path class="st6" d="M285.925,55.19l-0.011,1.391c-0.258-0.092-0.503-0.155-0.736-0.191c-0.233-0.036-0.457-0.044-0.67-0.023
		c-0.329,0.032-0.581,0.112-0.756,0.245c-0.174,0.132-0.254,0.299-0.238,0.5c0.012,0.141,0.069,0.258,0.171,0.355
		c0.101,0.096,0.249,0.169,0.443,0.221c0.065,0.015,0.157,0.038,0.278,0.068c0.716,0.181,1.196,0.353,1.44,0.52
		c0.229,0.162,0.403,0.354,0.521,0.578c0.119,0.224,0.19,0.493,0.215,0.807c0.058,0.736-0.12,1.32-0.534,1.749
		c-0.415,0.431-1.044,0.686-1.89,0.768c-0.305,0.03-0.613,0.035-0.924,0.018c-0.31-0.018-0.621-0.059-0.931-0.124l0.018-1.503
		c0.297,0.113,0.583,0.193,0.859,0.241c0.276,0.048,0.533,0.06,0.773,0.037c0.32-0.031,0.568-0.121,0.742-0.269
		c0.175-0.15,0.254-0.338,0.235-0.565c-0.022-0.279-0.338-0.503-0.95-0.671c-0.146-0.04-0.259-0.072-0.339-0.096
		c-0.599-0.173-1.034-0.399-1.307-0.679c-0.272-0.279-0.427-0.653-0.465-1.124c-0.053-0.672,0.124-1.209,0.532-1.612
		c0.409-0.402,1.021-0.643,1.838-0.722c0.301-0.029,0.59-0.037,0.87-0.024C285.39,55.098,285.66,55.132,285.925,55.19"/>
	<path class="st6" d="M289.024,55.682l0.37,1.912l0.421-0.099c0.319-0.075,0.545-0.208,0.678-0.4
		c0.134-0.191,0.171-0.439,0.111-0.742c-0.063-0.326-0.191-0.555-0.388-0.685c-0.194-0.13-0.449-0.159-0.763-0.086 M287.201,54.871
		l2.136-0.498c0.836-0.195,1.488-0.169,1.954,0.078c0.466,0.246,0.769,0.727,0.908,1.439c0.138,0.715,0.046,1.304-0.279,1.768
		c-0.323,0.463-0.863,0.784-1.615,0.959l-0.681,0.159l0.442,2.291l-1.594,0.371L287.201,54.871z"/>
	<path class="st6" d="M295.761,53.676c-0.401,0.143-0.668,0.447-0.799,0.912c-0.132,0.467-0.104,1.017,0.083,1.651
		c0.189,0.639,0.46,1.104,0.816,1.398c0.355,0.293,0.734,0.368,1.138,0.224c0.402-0.143,0.665-0.447,0.794-0.91
		c0.128-0.465,0.098-1.018-0.092-1.658c-0.188-0.633-0.458-1.095-0.812-1.39C296.536,53.61,296.159,53.534,295.761,53.676
		 M295.394,52.434c0.903-0.323,1.695-0.279,2.379,0.132c0.684,0.41,1.181,1.138,1.491,2.187c0.311,1.051,0.3,1.963-0.035,2.732
		c-0.334,0.77-0.953,1.315-1.854,1.638c-0.909,0.325-1.705,0.283-2.39-0.123c-0.684-0.407-1.181-1.136-1.492-2.187
		c-0.309-1.048-0.297-1.96,0.039-2.733C293.868,53.305,294.488,52.757,295.394,52.434"/>
	<path class="st6" d="M301.301,51.356l0.638,1.573l0.523-0.256c0.323-0.158,0.538-0.34,0.646-0.547
		c0.109-0.207,0.112-0.439,0.008-0.696c-0.111-0.276-0.283-0.436-0.516-0.477c-0.232-0.042-0.541,0.032-0.929,0.221 M299.408,50.989
		l2.218-1.085c0.74-0.361,1.342-0.498,1.806-0.41c0.464,0.089,0.806,0.401,1.024,0.94c0.162,0.396,0.2,0.77,0.115,1.118
		c-0.085,0.348-0.289,0.654-0.612,0.914c0.343-0.026,0.715,0.194,1.116,0.659l0.002,0.004l1.491,1.707l-1.553,0.758l-1.172-1.438
		c-0.189-0.232-0.371-0.366-0.55-0.403c-0.178-0.036-0.411,0.015-0.699,0.155l-0.216,0.106l0.972,2.394l-1.457,0.713L299.408,50.989
		z"/>
	<path class="st6" d="M279.47,22.905l-1.747,0.486c0,0,0.298,2.296-2.286,3.67c-2.584,1.374-8.221,5.529-8.221,19.992l2.539,1.552
		l2.547-1.561c0-8.871,2.416-15.058,7.169-15.527"/>
	<path class="st6" d="M279.47,28.776c6.092,0,9.567,5.959,9.567,20.045l-2.508-1.58c0-8.97-2.379-15.223-7.059-15.698"/>
	<path class="st27" d="M283.672,26.637c-2.221-1.214-2.026-3.171-2.016-3.251c0.029-0.225-0.113-0.437-0.332-0.5l-1.634-0.458
		c-0.104-0.053-0.225-0.065-0.339-0.033l-1.72,0.491c-0.215,0.062-0.355,0.274-0.33,0.496c0.01,0.083,0.206,2.04-2.015,3.254
		c-5.452,2.978-8.334,10.107-8.334,20.616c0,0.157,0.081,0.304,0.215,0.389l2.5,1.569c0.15,0.094,0.341,0.094,0.491,0l2.509-1.58
		c0.134-0.084,0.215-0.231,0.215-0.388c0-9.088,2.464-14.776,6.597-15.237c4.133,0.46,6.598,6.15,6.598,15.237
		c0,0.157,0.081,0.303,0.215,0.388l2.509,1.58c0.076,0.047,0.161,0.071,0.246,0.071c0.085,0,0.17-0.024,0.246-0.071l2.499-1.569
		c0.134-0.085,0.215-0.232,0.215-0.389C292.007,36.744,289.124,29.615,283.672,26.637 M286.998,46.989
		c-0.047-9.633-2.765-15.423-7.473-15.902c-0.018-0.002-0.035-0.001-0.054,0l-0.001-2.309c-6.013,0-9.475,5.805-9.565,19.497
		l-2.032-1.276c0.045-10.012,2.759-16.771,7.855-19.555c2.161-1.18,2.474-2.974,2.501-3.77l1.233-0.352l0.009,0.003v5.454
		c6.013,0,9.477,5.804,9.566,19.494L286.998,46.989z"/>
	<path class="st6" d="M276.762,16.483c0,0,1.161-0.931,1.593-1.795c0.434-0.863,1.142-2.613,1.142-2.613l0.328,0.328v7.986
		l-2.198,0.501c0,0,0.011-1.4-0.205-2.205C277.081,17.414,276.762,16.483,276.762,16.483"/>
	<path class="st27" d="M282.484,16.241c-1.331-1.168-2.224-2.676-2.656-4.477c-0.039-0.165-0.187-0.28-0.356-0.28
		c-0.169,0-0.316,0.117-0.354,0.28c-0.429,1.806-1.351,3.349-2.662,4.461c-0.123,0.103-0.163,0.274-0.1,0.42
		c0.553,1.296,0.845,2.737,0.865,4.283c0.002,0.109,0.054,0.213,0.139,0.28c0.084,0.068,0.197,0.094,0.304,0.071l1.809-0.393
		l1.818,0.393c0.027,0.006,0.052,0.009,0.078,0.009c0.084,0,0.164-0.029,0.232-0.082c0.084-0.069,0.134-0.174,0.134-0.285
		c-0.011-1.47,0.275-2.905,0.845-4.265C282.641,16.511,282.602,16.345,282.484,16.241 M277.939,20.475
		c-0.062-1.379-0.334-2.679-0.81-3.869c1.017-0.919,1.8-2.082,2.311-3.416l-0.01,6.965c-0.01,0.001-0.023,0.001-0.035,0.004
		L277.939,20.475z"/>
</g>
</svg>
